<?xml version="1.0" standalone="no"?>
<!DOCTYPE svg PUBLIC "-//W3C//DTD SVG 20010904//EN"
 "http://www.w3.org/TR/2001/REC-SVG-20010904/DTD/svg10.dtd">
<svg version="1.0" xmlns="http://www.w3.org/2000/svg"
 width="512.000000pt" height="512.000000pt" viewBox="0 0 512.000000 512.000000"
 preserveAspectRatio="xMidYMid meet">
<metadata>
Created by potrace 1.14, written by Peter Selinger 2001-2017
</metadata>
<g transform="translate(0.000000,512.000000) scale(0.100000,-0.100000)"
fill="#000000" stroke="none">
<path d="M4513 4922 c-26 -26 -78 -86 -148 -167 -144 -168 -264 -290 -352
-358 -77 -59 -278 -190 -478 -312 -88 -53 -185 -115 -215 -138 -106 -80 -246
-231 -379 -409 -72 -97 -135 -179 -140 -183 -14 -8 -22 26 -22 93 -1 74 15
133 51 198 56 100 70 211 42 326 -13 50 -8 117 9 150 23 43 57 158 49 163 -11
7 -14 5 -245 -148 l-179 -119 -59 6 c-66 7 -166 -17 -244 -57 -36 -18 -48 -20
-90 -11 -26 5 -66 6 -88 2 -22 -4 -53 -10 -68 -12 -69 -11 -107 -60 -109 -139
-2 -67 22 -127 62 -150 36 -22 40 -21 40 3 0 27 35 60 62 60 24 0 138 -111
138 -134 0 -27 -49 -57 -118 -73 -40 -10 -72 -20 -72 -23 0 -4 13 -18 28 -33
20 -19 46 -31 89 -38 49 -9 63 -15 72 -35 24 -54 7 -110 -53 -169 -60 -59
-113 -71 -195 -43 -70 25 -97 19 -191 -41 -43 -27 -96 -55 -117 -60 -144 -38
-315 131 -316 315 -1 74 13 112 71 188 25 32 51 74 57 93 23 65 3 146 -47 193
-21 19 -54 29 -45 13 11 -18 -14 -117 -34 -140 -27 -28 -31 -24 -59 47 -26 67
-72 117 -119 130 -19 5 -36 8 -38 7 -1 -2 4 -28 11 -58 10 -47 14 -108 7 -141
-2 -11 -29 -10 -33 1 -1 5 -20 18 -41 29 -50 26 -121 23 -151 -8 l-21 -21 21
-17 c89 -71 87 -66 88 -207 1 -108 2 -112 40 -185 46 -88 65 -155 55 -190 -4
-14 -7 -38 -8 -53 -2 -46 76 -193 93 -176 2 2 5 27 7 54 6 111 45 114 150 14
30 -28 78 -72 108 -97 116 -101 151 -135 151 -150 0 -25 -188 -202 -237 -224
-63 -28 -143 -27 -231 2 -88 29 -132 63 -133 105 0 17 8 60 19 96 24 78 20
129 -14 186 -21 36 -71 83 -88 83 -3 0 -6 -26 -6 -59 0 -58 -15 -121 -30 -121
-4 0 -13 13 -20 29 -15 38 -85 109 -119 123 -34 14 -72 19 -93 12 -15 -5 -12
-13 21 -57 41 -56 59 -100 53 -133 l-3 -21 -40 20 c-21 10 -55 23 -74 27 -37
8 -115 -6 -115 -21 0 -5 17 -20 38 -33 57 -36 97 -87 111 -142 28 -108 43
-143 77 -182 33 -39 141 -108 181 -117 34 -7 88 -33 105 -52 10 -10 31 -34 48
-54 33 -41 84 -65 156 -75 53 -7 79 12 41 31 -12 6 -31 27 -42 47 -16 31 -17
38 -5 53 19 23 91 50 190 70 79 16 266 77 322 106 29 15 39 17 43 7 2 -7 16
-57 30 -111 14 -54 35 -119 47 -145 30 -63 179 -259 268 -352 93 -97 98 -107
62 -115 -39 -8 -70 -1 -185 40 -152 55 -255 46 -349 -29 -95 -75 -122 -181
-85 -326 29 -110 6 -248 -47 -285 -34 -25 -52 -18 -138 55 -94 79 -144 100
-230 94 -55 -3 -158 -44 -158 -63 0 -4 16 -8 35 -9 45 -2 87 -26 109 -63 l17
-29 -49 -48 c-54 -53 -96 -126 -107 -186 -7 -37 -7 -38 16 -31 13 4 42 15 64
25 62 27 68 28 94 19 18 -7 22 -14 17 -34 -4 -15 3 -52 18 -94 38 -107 34
-105 86 -59 25 22 59 46 77 54 42 18 113 18 160 -1 58 -22 82 -24 162 -10 76
13 121 12 192 -4 l41 -9 -6 61 c-10 91 -8 187 3 225 5 17 8 32 5 32 -2 0 5 18
16 39 21 43 54 72 97 89 42 16 223 53 233 47 4 -3 -1 -28 -11 -56 -30 -79 -27
-194 9 -340 14 -56 77 -181 122 -240 55 -73 160 -179 188 -190 59 -23 120 5
128 59 9 59 39 155 49 159 6 2 42 -17 80 -42 89 -59 157 -79 268 -79 124 0
144 30 49 78 -60 30 -212 142 -212 156 0 13 59 -17 148 -74 37 -24 88 -50 112
-56 123 -34 279 17 215 70 -18 15 -57 37 -143 82 -65 33 -119 75 -109 85 3 2
25 -9 50 -25 96 -67 239 -89 303 -47 42 27 35 38 -101 150 -73 60 -211 200
-295 301 -41 49 -78 91 -82 92 -5 2 -8 8 -8 14 0 6 -12 27 -27 47 -45 58 -81
126 -88 163 -3 13 11 71 31 131 42 127 50 133 174 142 137 9 284 49 328 89 18
16 22 29 20 59 l-3 39 85 24 c93 27 185 66 211 90 21 19 14 48 -17 64 -37 20
-19 29 61 29 82 0 142 9 151 22 3 5 12 9 21 9 9 0 36 16 60 36 52 43 48 52
-35 90 -30 14 -53 26 -51 28 2 2 43 7 90 10 48 3 111 15 142 25 110 38 207
118 207 170 0 18 -5 20 -27 17 -81 -14 -121 -16 -143 -7 -14 5 -18 10 -10 11
8 1 24 3 35 5 11 2 38 7 60 10 73 11 163 72 268 179 45 46 67 89 53 103 -4 4
-55 -8 -114 -27 -184 -57 -220 -50 -66 13 124 51 194 95 261 163 79 83 130
185 91 184 -7 -1 -67 -27 -132 -59 -135 -67 -194 -72 -69 -7 166 87 240 159
332 325 7 13 15 48 18 78 l6 54 -29 -13 c-16 -7 -85 -56 -154 -110 -69 -54
-134 -98 -145 -98 l-20 1 20 11 c170 93 299 234 374 406 32 73 37 112 14 119
-7 3 -48 -28 -90 -69 -90 -85 -156 -138 -172 -138 -6 0 -11 -4 -11 -8 0 -9
-70 -45 -76 -39 -2 2 22 24 54 49 184 145 291 299 296 428 2 33 -1 65 -5 71
-5 8 -38 -20 -101 -85 -82 -87 -164 -156 -183 -156 -4 0 27 36 68 80 63 68
141 186 137 205 -1 3 2 24 6 48 8 49 8 156 -1 210 -11 62 -47 42 -79 -44 -23
-65 -64 -124 -134 -198 -80 -85 -99 -71 -24 18 32 38 70 94 85 124 57 118 76
291 37 355 -37 60 -62 41 -129 -98 -47 -97 -121 -202 -134 -190 -3 3 10 28 28
55 69 100 105 294 68 364 -22 43 -36 48 -60 23z"/>
</g>
</svg>
