<svg id="Layer_1" data-name="Layer 1" xmlns="http://www.w3.org/2000/svg" viewBox="0 0 512 512"><defs><style>.cls-1{fill:#005075;}.cls-2{fill:#ae502e;}</style></defs><path class="cls-1" d="M253.28,476.12c-2.86-.3-5.12-1.94-7.12-3.71-20-17.76-31.51-39.38-30.09-66.81.21-4.06,2-7.6,3.42-11.23.83-2.09.09-2.7-1.79-2.33-7.23,1.43-14.57,2.47-21.57,4.79-8.22,2.72-11.34,9.3-12.68,17.31a63.53,63.53,0,0,0,.43,24.08c.75,3.5.55,3.76-2.9,2.74-8-2.36-16-1.77-24,.14a17.32,17.32,0,0,1-11.23-1.35c-9.39-4.15-17.91-2.36-25,5.16-1.31,1.38-2.76,2.62-4.46,4.23-2-5.53-3.94-10.67-5.67-15.89a9.9,9.9,0,0,1,0-3.91c.41-3.79.44-3.72-3.46-3.85-3.08-.1-5.68,1.14-8.29,2.52a19.82,19.82,0,0,1-5.83,2.49c-1.51.26-2.28,0-1.87-1.81,2.06-9.21,6.32-17.05,14.29-22.42,2-1.39,2-2.41.9-4.3-3.36-6-8.54-8-15.27-7.09a4.09,4.09,0,0,1,2.37-3.07c7.37-4,15.07-5.6,23.37-3.26a20.33,20.33,0,0,1,7.61,4.21c4,3.32,7.88,6.66,11.87,9.93,2.8,2.29,4.46,2.25,7.31.07a14.29,14.29,0,0,0,5.14-8.66,43.88,43.88,0,0,0-.76-22.5c-3.5-11.76-.79-21.73,8.26-29.63s19.9-8.76,31.06-4.9c5.42,1.88,10.69,4.17,16.3,5.57,3.42.85,6.36-.05,9.51-1-.26-2-1.64-3.21-2.91-4.47a231.33,231.33,0,0,1-30.39-36.95c-4.39-6.65-5.94-14.05-7.9-21.43-.7-2.63-1.34-5.28-1.86-8-.31-1.6-.81-2.06-2.41-1.27-14,6.93-29.18,10.52-44.28,14.21a24.11,24.11,0,0,0-9.58,4.36c-1.19,1-1.53,1.79-.82,3.3,1.35,2.89,2.83,5.58,5.69,7.26.73.43,2,.78,1.7,1.85s-1.61,1.26-2.53,1.2c-8.6-.5-16.51-2.68-21.22-10.68a12.15,12.15,0,0,0-6.81-5.54c-6.75-2.43-13.42-5-19.35-9.23a25.81,25.81,0,0,1-11.07-18c-1.36-9-5.78-16.07-14.42-19.95-.87-.39-1.78-.82-1.88-1.77C43,235.35,44.22,235.29,45,235c4.56-2.09,9.08-1.39,13.52.4,2.61,1.05,5.16,2.24,7.76,3.37,1.43-5.83-.71-10.68-8.92-20.37,7.51-3.88,18.54,3.36,24.49,16.31,5.61-5.51,2-12.44,3.43-18.43,7.66,2.48,13.67,13.42,11.77,21.89a61.9,61.9,0,0,1-2.81,9.56c-2.13,5.34,0,10.15,5.26,12.43,7.25,3.14,14.5,6.23,22.73,5.35,5.81-.63,11.05-2.52,15.28-6.61,5.46-5.27,10.72-10.75,16.14-16.05a2.2,2.2,0,0,0,.46-3.12,16.69,16.69,0,0,0-4.4-5c-8.91-6.72-16.86-14.52-25-22.13-1.85-1.73-3.71-3.39-6.45-3.67-2.58-.26-4,.83-4.64,3.25a23.14,23.14,0,0,0-.15,10.77c-2.36-.67-4.06-1.62-5-3.89s-2.41-4.67-3.53-7a15.44,15.44,0,0,1-1.2-11.17c1.26-4.39.46-8.63-1.44-12.67a66.9,66.9,0,0,0-3.71-6.94c-4.58-7.37-5.28-15.32-3.87-23.66a13.22,13.22,0,0,0-8.21-15c-2.53-1.09-2.82-2.23-1-4.35a7.67,7.67,0,0,1,5.82-2.81c6.53-.24,11,1.69,15.41,6.79,3-3.65,2.93-8-.61-22,5.36.89,9.62,3.11,12.65,7.45,2.87,4.11,3.85,9.07,5.93,13.65,4.55-2,5.92-5.9,6.45-10.27a52.36,52.36,0,0,0,.4-5.45c0-2.11.83-1.75,2.14-.89,8.17,5.32,10.32,17,4.57,25.2a38.85,38.85,0,0,1-3.44,4.24c-16.14,17.32-4.08,43.68,12.82,50.07,6.06,2.29,11.5,2.37,17-1.24,3.8-2.49,7.9-4.5,11.58-7.21,3.53-2.61,7.49-2.75,11.57-1.67a27.36,27.36,0,0,1,3.73,1.28c6.07,2.61,11.42,1.31,16.3-2.87,3.66-3.15,6.74-6.69,8.12-11.45,1.91-6.56-1.14-10.74-8-10.89-5.24-.12-9.13-2.58-12.18-7.79,3.58-.69,7.22-.86,10.67-2a17.36,17.36,0,0,0,8.77-5.67c.72-.9,1-1.56.06-2.53-3.07-3.21-6.07-6.5-9.11-9.76a2.09,2.09,0,0,0-.22-.2c-5-4.2-9.68-2.65-11.25,3.71a15.78,15.78,0,0,0-.22,2.07c-4.51-.84-9.27-6.87-9.6-12.21a42.3,42.3,0,0,1,.38-8.78,10.93,10.93,0,0,1,9-9.05c2.89-.52,5.75-1.08,8.6-1.76a12.6,12.6,0,0,1,8.61.58c2.63,1.26,5.19.61,7.53-.75,5.5-3.18,11.67-4.42,17.63-6.28,3.49-1.1,7,.12,10.54.31a9.71,9.71,0,0,0,6.08-1.27Z"/><path class="cls-2" d="M454.9,172.31a82.7,82.7,0,0,0,28.25-24.46c5.06-6.94,8.25-14.8,11.55-22.63a4.26,4.26,0,0,0-.93-4.77c-1.1-1-2.54.59-3.65,1.34a19.38,19.38,0,0,0-2.6,2.53c-7.71,7.79-15.7,15.23-25.55,20.31-1.53.79-3,1.94-5.39,1.63,3.94-3.15,7.6-6,11.17-8.95,9.45-7.82,17.52-16.78,22.87-28,2.95-6.18,3.43-12.61,2.36-19.57-.9.71-1.48,1.12-2,1.59-5,4.46-9.23,9.65-13.9,14.43a47.65,47.65,0,0,1-12.16,9.45c-.46.24-1.19,1.22-1.74.15-.41-.78.6-.84.95-1.2a155,155,0,0,0,14.25-15.74c8.85-11.58,8.46-24.89,6.95-38.35A11.88,11.88,0,0,0,484,56.87c-3.95,1.21-4.85,4.48-5.88,7.69-3.11,9.67-10,16.7-16.8,23.79-1.11,1.16-3.28,3.5-4.59,2s1.29-3.19,2.53-4.48c8.75-9.08,14.43-19.69,16.14-32.26a62.11,62.11,0,0,0,.16-14.55c-.23-2.4-3.79-7.6-5.29-7.26-2.53.57-3.87,2.91-5,5.16-.05.09-.08.19-.12.28-2.29,4.73-4.71,9.41-6.84,14.21-1.83,4.11-4.9,7.27-7.61,10.7a5.85,5.85,0,0,1-4.59,2,3.09,3.09,0,0,1,.42-.81c7.82-8,10.67-18.13,11.95-28.88.54-4.46.65-8.84-1.47-13-2-4-3.28-4.38-6.3-1-5.56,6.29-10.94,12.75-16.48,19.06-11.44,13-22.9,26.06-37.11,36.17-16.73,11.9-34.35,22.49-51.94,33.06a150.26,150.26,0,0,0-45.63,42.51c-5.91,8.33-12.18,16.41-18.31,24.59-.45.6-.79,1.61-1.78,1.38s-1.12-1.06-1.24-1.9c-1.33-9.61-1.07-18.84,4.32-27.54a39,39,0,0,0,4.5-32.66,21.65,21.65,0,0,1,1.08-15.63A125.14,125.14,0,0,0,293,86.12c.28-.84.93-1.8.14-2.54-1-.94-1.84.22-2.67.63a85.2,85.2,0,0,0-9.78,6.08Q267,99.53,253.28,108.73V476.18h.07a10.42,10.42,0,0,0,4.63-1,10.9,10.9,0,0,0,2.06-1.53c.58-.5,1.17-1,1.74-1.5,1.34-6,2.66-12,4.46-17.9.45-1.48.82-2.3,2.57-1.19,2.13,1.36,4.36,2.53,6.38,4.07,10.32,7.88,22.13,9.32,34.57,7.9,1.28-.15,2.77-.43,3-2,.23-1.43-.73-2.47-1.8-3.31a7.22,7.22,0,0,0-1.57-.91c-8.43-3.5-15.18-9.57-22.51-14.76a4.2,4.2,0,0,1-1.34-1.59c-.23-.48-.47-1.22.07-1.7s1,.25,1.49.48a112.79,112.79,0,0,1,15.81,9.43c8.32,5.77,17.14,6.54,26.62,4,2.42-.64,4.7-1.43,5.07-4.06s-2.18-3.43-3.95-4.41c-5.3-2.94-10.67-5.76-16.05-8.56a32.1,32.1,0,0,1-6.88-5.44c-.36-.33-.84-.66-.52-1.26.44-.81,1-.4,1.54-.11,1.72,1,3.45,2.1,5.11,3.25,8,5.59,16.83,7.68,26.49,5.77,2.29-.46,4.5-1.41,5.12-3.74.56-2.09-1.35-3.42-2.73-4.73a29,29,0,0,0-2.34-1.94,244.73,244.73,0,0,1-35.08-33.94A171.91,171.91,0,0,1,286.1,369c-2.44-4.24-4-8.85-2.11-13.62,1.81-4.52,3.21-9.14,4.67-13.76s4.39-6.58,9.13-7c4.93-.44,9.91,0,14.8-1.1,7.27-1.71,14.71-2.83,21.54-6.06,4-1.92,5.38-4.19,4.17-8.25-1-3.37.36-4,3.17-4.6a97.53,97.53,0,0,0,24.76-8.82c1.61-.87,3.31-1.88,3.06-4.08s-1.75-3.35-3.56-4.19a19.73,19.73,0,0,0-2.2-.76,2.42,2.42,0,0,1,2.92-2.05c2.11.18,4.24.15,6.36.3a34.9,34.9,0,0,0,24.33-7.62c2.77-2.13,2.66-3.83-.35-5.57-2.27-1.3-4.73-2.27-7.05-3.52-1-.52-2.94-.52-2.59-2s2.11-.62,3.21-.6c12.86.25,24.59-2.94,34.88-10.93a19,19,0,0,0,5.85-7.94c.82-1.93.15-2.14-1.55-2.17a28.8,28.8,0,0,0-7.5.76c-3.62.89-7.26,1-10.63-1.38.71-.8,1.48-.6,2.14-.62,10.06-.35,19.08-3.18,26.29-10.63a62.28,62.28,0,0,1,4.92-4.05c4.06-3.4,7.85-7,10.15-11.92.44-.93.87-1.86,0-2.81s-1.7-.2-2.48,0Q443.2,227,434,229.91c-1.54.49-3.08,1-4.61,1.48a1.7,1.7,0,0,1-2.44-1.06c-.37-1.18.81-1.05,1.45-1.33,4.37-1.87,8.68-3.86,13.11-5.57a59.84,59.84,0,0,0,27.7-21.84,18,18,0,0,0,3.56-8.28c.1-.85.8-1.89-.1-2.51-.71-.49-1.55.22-2.25.56-6.72,3.29-13.43,6.57-20.11,9.93A11.61,11.61,0,0,1,444,202.6c0-1.5,1.11-1.7,2-2.14,2.52-1.29,5.1-2.46,7.58-3.83,14.39-7.91,26.08-18.38,32.12-34.18,1.21-3.15,2.08-6.31,1.22-9.9-2.07.67-4.17,1-6,2.41-7.35,5.87-14.76,11.66-22.15,17.48a10.14,10.14,0,0,1-5.87,2C453,173,454,172.77,454.9,172.31Z"/></svg>